<svg xmlns="http://www.w3.org/2000/svg" viewBox="0 0 32 32"><circle cx="16" cy="16" r="16" fill="#1da1f2"/><path d="M25 11.54a6.94 6.94 0 0 1-2 .55 3.48 3.48 0 0 0 1.53-1.92 6.93 6.93 0 0 1-2.19.84 3.47 3.47 0 0 0-5.93 3.16A9.86 9.86 0 0 1 8.09 10a3.47 3.47 0 0 0 1.08 4.63 3.44 3.44 0 0 1-1.57-.43v.04a3.47 3.47 0 0 0 2.78 3.4 3.5 3.5 0 0 1-1.56.06 3.48 3.48 0 0 0 3.24 2.41A7 7 0 0 1 7 23.13a9.86 9.86 0 0 0 5.34 1.57c6.4 0 9.9-5.3 9.9-9.9 0-.15 0-.3-.01-.45A7.18 7.18 0 0 0 25 11.54z" fill="#fff"/></svg>
