<svg xmlns="http://www.w3.org/2000/svg" viewBox="0 0 48 48" fill="none"><circle cx="24" cy="24" r="24" fill="#25D366"/><path d="M24 12c-6.627 0-12 5.373-12 12 0 2.12.555 4.116 1.527 5.837L12 36l6.274-1.64A11.95 11.95 0 0 0 24 36c6.627 0 12-5.373 12-12s-5.373-12-12-12Zm0 21.333c-1.874 0-3.627-.49-5.164-1.341l-.368-.214-3.73.974.995-3.633-.238-.374A9.333 9.333 0 1 1 24 33.333Zm5.08-6.387c-.278-.139-1.641-.809-1.895-.902-.254-.093-.439-.139-.623.14-.185.278-.714.902-.876 1.088-.162.185-.323.208-.6.07-.278-.139-1.174-.433-2.237-1.379-.827-.735-1.385-1.64-1.548-1.917-.162-.278-.017-.428.122-.566.125-.124.278-.323.417-.485.139-.162.185-.278.278-.463.093-.185.047-.347-.023-.486-.07-.139-.623-1.505-.853-2.065-.224-.538-.451-.465-.623-.474l-.53-.009c-.185 0-.485.07-.74.347s-.972.951-.972 2.317c0 1.367.995 2.687 1.134 2.872.139.185 1.96 2.993 4.747 4.08.664.287 1.182.458 1.587.586.667.213 1.276.183 1.755.111.536-.08 1.641-.669 1.872-1.315.232-.646.232-1.2.162-1.316-.07-.116-.254-.185-.532-.324Z" fill="#fff"/></svg>
