<svg width="32" height="32" viewBox="0 0 32 32" fill="none" xmlns="http://www.w3.org/2000/svg">
  <circle cx="16" cy="16" r="16" fill="#25D366"/>
  <path d="M24.5 17.3c-.3-.1-1.7-.8-1.9-.9-.3-.1-.5-.2-.7.2-.2.3-.7.9-.9 1.1-.2.2-.3.2-.6.1-.3-.1-1.2-.5-2.3-1.4-.8-.7-1.4-1.6-1.6-1.9-.2-.3 0-.4.1-.6.1-.1.2-.3.3-.4.1-.1.1-.2.2-.3.1-.1.1-.2.2-.3.1-.1.1-.2.1-.3 0-.1 0-.2-.1-.3-.1-.1-.7-1.7-.9-2.3-.2-.6-.4-.5-.6-.5-.2 0-.3 0-.5 0-.2 0-.4.1-.5.2-.2.2-.7.6-.7 1.6 0 .2 0 .4.1.6.2.5.6 1.4 1.5 2.3 1.1 1.1 2.4 1.8 2.9 2 .5.2.8.2 1.1.1.3-.1.7-.3.9-.5.2-.2.4-.4.5-.7.1-.3.1-.5.1-.6-.1-.2-.3-.3-.5-.4z" fill="#fff"/>
</svg>
